<?xml version="1.0" encoding="utf-8"?>
<!-- Generator: Adobe Illustrator 27.7.0, SVG Export Plug-In . SVG Version: 6.00 Build 0)  -->
<svg version="1.1" id="Layer_1" xmlns="http://www.w3.org/2000/svg" xmlns:xlink="http://www.w3.org/1999/xlink" x="0px" y="0px"
	 viewBox="0 0 1920 1080" style="enable-background:new 0 0 1920 1080;" xml:space="preserve">
<style type="text/css">
	.st0{clip-path:url(#SVGID_00000129204073740426660010000002910580751003534725_);fill:#8B3C7F;}
	.st1{fill:#8B3C7F;}
	.st2{clip-path:url(#SVGID_00000173121950264059599900000011171013423065992116_);fill:#8B3C7F;}
	.st3{clip-path:url(#SVGID_00000150087118653843109900000002985307380772648878_);fill:#8B3C7F;}
</style>
<g>
	<defs>
		<rect id="SVGID_1_" x="879.01" y="533.98" width="131" height="108.63"/>
	</defs>
	<clipPath id="SVGID_00000092433821654495753540000009618267962134159763_">
		<use xlink:href="#SVGID_1_"  style="overflow:visible;"/>
	</clipPath>
	<path style="clip-path:url(#SVGID_00000092433821654495753540000009618267962134159763_);fill:#8B3C7F;" d="M988.54,540.36
		c-10.59-6.11-22.92-7.73-34.73-4.57c-11.37,3.05-20.94,10.2-27.09,20.19c12.94,23.96,4.53,54.12-19.2,67.82
		c-7.94,4.59-16.63,6.76-25.2,6.76c-0.87,0-1.74-0.04-2.61-0.09c12.95,7.7,28.07,12.14,44.24,12.14c43.78,0,79.96-32.46,85.85-74.62
		C1006.73,556.74,999.42,546.64,988.54,540.36L988.54,540.36z M988.54,540.36"/>
</g>
<path class="st1" d="M923.95,469.21c-11.48,0-22.42,2.25-32.45,6.3c-8.23,8.28-13.32,19.67-13.32,32.23
	c0,24.79,19.81,45.02,44.43,45.73c6.79-11.04,17.37-18.95,29.95-22.32c13.05-3.5,26.68-1.7,38.38,5.05
	c8.74,5.04,15.39,12.33,19.67,20.7c0-0.33,0.02-0.66,0.02-0.99C1010.65,508.02,971.83,469.21,923.95,469.21L923.95,469.21z
	 M923.95,469.21"/>
<g>
	<defs>
		<rect id="SVGID_00000162327023762001431360000003193054302804893835_" x="837.24" y="479.98" width="90.77" height="146"/>
	</defs>
	<clipPath id="SVGID_00000119826336299636739910000004020083664625338798_">
		<use xlink:href="#SVGID_00000162327023762001431360000003193054302804893835_"  style="overflow:visible;"/>
	</clipPath>
	<path style="clip-path:url(#SVGID_00000119826336299636739910000004020083664625338798_);fill:#8B3C7F;" d="M905.11,619.62
		c21.47-12.39,29.08-39.67,17.39-61.34c-27.22-0.77-49.13-23.14-49.13-50.54c0-10.09,2.99-19.51,8.11-27.41
		c-26.4,14.86-44.24,43.13-44.24,75.58c0,27.76,13.05,52.44,33.34,68.31C881.85,627.19,894.25,625.89,905.11,619.62L905.11,619.62z
		 M905.11,619.62"/>
</g>
<path class="st1" d="M757.7,501.6l2.46-7.18c0.51-1.47,1.1-2.43,1.78-2.86c0.68-0.44,1.59-0.46,2.73-0.07
	c0.94,0.32,1.49,0.91,1.64,1.76c0.17,0.84-0.01,2.01-0.52,3.52l-2.32,6.76l4.42,1.51l3.15-9.04c0.53-1.55,1.14-2.59,1.84-3.12
	c0.7-0.52,1.63-0.59,2.79-0.19c1.34,0.46,2.14,1.18,2.39,2.16c0.26,0.97,0.11,2.27-0.44,3.88l-4.64,13.52
	c-0.56,1.64-1.41,2.69-2.55,3.16c-1.14,0.46-2.82,0.31-5.04-0.45l-17.61-6.05c-3.34-1.15-4.47-3.3-3.38-6.47l4.64-13.52
	c0.56-1.61,1.22-2.73,1.99-3.35c0.77-0.63,1.81-0.72,3.12-0.27c1.22,0.42,1.96,1.05,2.21,1.91c0.25,0.85,0.11,2.05-0.42,3.6
	l-3.12,9.1L757.7,501.6z M757.7,501.6"/>
<path class="st1" d="M772.34,458.75l15.01,10.02c0.43-0.64,0.73-1.24,0.91-1.81c0.18-0.57,0.24-1.18,0.18-1.84
	c-0.07-0.66-0.31-1.33-0.72-2c-0.41-0.66-1.02-1.37-1.83-2.15c-0.82-0.77-1.84-1.57-3.09-2.41c-1.4-0.93-2.66-1.59-3.79-1.98
	c-1.13-0.41-2.1-0.55-2.91-0.42c-0.81,0.14-1.51,0.41-2.09,0.82C773.44,457.41,772.88,457.99,772.34,458.75L772.34,458.75z
	 M764.37,459.66l3.61-5.4c2.54-3.82,5.68-6.14,9.43-6.98c3.74-0.85,7.55,0.02,11.42,2.6c1.25,0.83,2.38,1.75,3.39,2.77
	c1.02,1.02,1.91,2.17,2.67,3.45c0.76,1.28,1.27,2.59,1.55,3.95c0.29,1.35,0.26,2.82-0.08,4.41c-0.33,1.58-1.02,3.15-2.06,4.72
	l-4.83,7.24c-0.99,1.49-2.09,2.31-3.28,2.45c-1.18,0.14-2.77-0.45-4.75-1.77l-15.49-10.33C763.04,464.8,762.52,462.44,764.37,459.66
	L764.37,459.66z M764.37,459.66"/>
<path class="st1" d="M815.76,411.23l8.65,9.9c2.82,3.23,4.07,6.24,3.74,9c-0.34,2.78-2.36,5.78-6.05,9.01
	c-3.52,3.07-6.77,4.58-9.73,4.51c-2.97-0.07-5.77-1.62-8.43-4.65l-8.65-9.91c-1.02-1.17-1.51-2.43-1.46-3.79
	c0.05-1.35,0.6-2.49,1.66-3.41c1.31-1.14,2.51-1.76,3.61-1.87c1.11-0.1,2.31,0.59,3.61,2.07l9.45,10.83
	c0.64,0.7,1.25,1.16,1.83,1.41c0.57,0.23,1.11,0.27,1.62,0.13c0.5-0.14,1.03-0.46,1.58-0.94c0.55-0.48,0.95-0.94,1.19-1.38
	c0.24-0.44,0.31-0.89,0.23-1.32c-0.09-0.43-0.23-0.81-0.43-1.15c-0.2-0.34-0.5-0.74-0.91-1.21l-9.48-10.86
	c-0.66-0.76-1.12-1.47-1.38-2.14c-0.25-0.68-0.29-1.3-0.12-1.89c0.17-0.58,0.43-1.09,0.77-1.53c0.33-0.45,0.78-0.93,1.37-1.43
	c1.28-1.12,2.51-1.65,3.7-1.59C813.31,409.07,814.52,409.81,815.76,411.23L815.76,411.23z M815.76,411.23"/>
<path class="st1" d="M852.39,394.57c-0.27-0.56-0.72-0.93-1.37-1.1c-0.66-0.17-1.31-0.11-1.95,0.19c-1.27,0.6-1.98,1.82-2.12,3.65
	c-0.14,1.85,0.22,3.68,1.09,5.51c0.67,1.42,1.54,2.57,2.6,3.44c1.06,0.88,2.26,1.41,3.59,1.59c1.32,0.2,2.65-0.02,3.98-0.64
	c0.98-0.46,1.84-1.11,2.56-1.93c0.72-0.8,1.25-1.58,1.59-2.32c0.34-0.73,0.71-1.42,1.13-2.09c0.41-0.68,0.85-1.12,1.3-1.34
	c0.58-0.27,1.2-0.27,1.85,0c0.65,0.26,1.09,0.64,1.32,1.14c0.27,0.56,0.41,1.3,0.42,2.2c0.02,0.9-0.14,1.95-0.46,3.12
	c-0.32,1.17-0.79,2.34-1.41,3.5c-0.62,1.15-1.54,2.3-2.75,3.43c-1.2,1.13-2.58,2.07-4.16,2.82c-2.07,0.98-4.14,1.58-6.2,1.8
	c-2.06,0.21-4.02,0.04-5.87-0.49c-1.85-0.55-3.56-1.53-5.13-2.93c-1.58-1.4-2.88-3.19-3.91-5.37c-2.04-4.31-2.35-8.32-0.95-12.04
	c1.4-3.72,4.19-6.56,8.36-8.54c2.13-1,4.27-1.58,6.41-1.71c2.14-0.14,4.05,0.18,5.73,0.96c1.66,0.77,2.85,1.91,3.57,3.43
	c0.83,1.76,1,3.62,0.5,5.61c-0.49,1.96-1.67,3.39-3.54,4.27c-1.06,0.5-2.16,0.66-3.29,0.49c-1.12-0.19-1.95-0.83-2.46-1.92
	c-0.24-0.5-0.33-1.32-0.26-2.46C852.62,395.69,852.56,394.94,852.39,394.57L852.39,394.57z M852.39,394.57"/>
<g>
	<path class="st1" d="M902.03,396.86c0.99-0.16,1.77-0.73,2.34-1.7c0.57-0.99,0.91-2.15,1.02-3.48c0.09-1.33,0.02-2.72-0.21-4.17
		c-0.24-1.48-0.62-2.85-1.15-4.12c-0.53-1.27-1.23-2.31-2.09-3.13c-0.85-0.82-1.76-1.15-2.73-1c-0.92,0.14-1.66,0.74-2.22,1.79
		c-0.54,1.05-0.88,2.26-1.02,3.65c-0.13,1.4-0.08,2.82,0.15,4.27c0.23,1.45,0.62,2.79,1.16,4.01c0.53,1.23,1.23,2.22,2.08,2.98
		C900.22,396.71,901.11,397.01,902.03,396.86L902.03,396.86z M910.48,400.27c-2.11,1.52-4.59,2.51-7.45,2.97
		c-2.87,0.46-5.53,0.3-7.99-0.49c-2.47-0.79-4.57-2.21-6.29-4.29c-1.74-2.07-2.86-4.66-3.35-7.77c-0.75-4.71,0.06-8.67,2.45-11.89
		c2.39-3.24,5.83-5.21,10.33-5.93c4.51-0.72,8.4,0.08,11.69,2.4c3.29,2.31,5.31,5.82,6.07,10.52c0.5,3.11,0.24,5.92-0.77,8.43
		C914.15,396.73,912.59,398.75,910.48,400.27L910.48,400.27z M910.48,400.27"/>
	<path class="st1" d="M962.88,378.33l-2.62,22.07c-0.15,1.29-0.66,2.25-1.51,2.9c-0.85,0.66-2,0.9-3.46,0.73
		c-0.38-0.05-0.75-0.14-1.12-0.27c-0.37-0.14-0.75-0.34-1.14-0.62c-0.4-0.28-0.75-0.55-1.04-0.79c-0.3-0.24-0.66-0.6-1.09-1.09
		c-0.44-0.48-0.79-0.86-1.04-1.14c-0.24-0.28-0.62-0.73-1.14-1.35c-0.51-0.62-0.89-1.09-1.12-1.38l-7.11-8.54l-1.13,9.51
		c-0.17,1.44-0.56,2.38-1.16,2.84c-0.6,0.46-1.49,0.63-2.66,0.49c-1.29-0.15-2.21-0.56-2.75-1.22c-0.54-0.65-0.73-1.66-0.57-3.04
		l2.52-21.16c0.2-1.66,0.77-2.86,1.72-3.61c0.95-0.75,2.21-1.03,3.79-0.84c1.08,0.13,1.93,0.4,2.54,0.82
		c0.62,0.41,1.33,1.1,2.12,2.09l9.78,12.35l1.14-9.55c0.15-1.25,0.57-2.15,1.26-2.7c0.7-0.55,1.6-0.76,2.69-0.64
		c1.25,0.15,2.12,0.55,2.61,1.19C962.86,376.03,963.03,377.01,962.88,378.33L962.88,378.33z M962.88,378.33"/>
</g>
<path class="st1" d="M1010.78,396.08l-8.57,20.51c-0.5,1.2-1.25,1.99-2.25,2.38c-1,0.4-2.17,0.32-3.52-0.25
	c-0.36-0.14-0.69-0.33-1.01-0.57c-0.32-0.23-0.62-0.54-0.93-0.91c-0.31-0.38-0.57-0.73-0.79-1.05c-0.22-0.31-0.46-0.76-0.75-1.34
	c-0.29-0.58-0.52-1.04-0.68-1.38c-0.15-0.34-0.4-0.87-0.73-1.61c-0.32-0.74-0.56-1.29-0.71-1.63l-4.5-10.16l-3.69,8.84
	c-0.56,1.34-1.19,2.14-1.89,2.41c-0.71,0.29-1.6,0.2-2.69-0.25c-1.19-0.5-1.97-1.14-2.31-1.93c-0.34-0.77-0.25-1.8,0.29-3.08
	l8.21-19.66c0.64-1.54,1.53-2.54,2.64-3c1.12-0.46,2.41-0.38,3.88,0.23c1,0.42,1.74,0.91,2.22,1.48c0.48,0.56,0.97,1.43,1.46,2.59
	l6.03,14.56l3.71-8.88c0.48-1.16,1.14-1.91,1.96-2.26c0.83-0.34,1.75-0.3,2.76,0.12c1.16,0.48,1.89,1.1,2.18,1.86
	C1011.4,393.86,1011.29,394.85,1010.78,396.08L1010.78,396.08z M1010.78,396.08"/>
<path class="st1" d="M1032.93,421.38l5.98,4.66c1.23,0.96,1.94,1.83,2.13,2.61c0.19,0.79-0.09,1.66-0.82,2.61
	c-0.61,0.79-1.35,1.11-2.2,0.98c-0.85-0.12-1.91-0.66-3.16-1.64l-5.64-4.39l-2.87,3.69l7.53,5.92c1.29,1.01,2.08,1.92,2.35,2.75
	c0.27,0.83,0.03,1.73-0.73,2.7c-0.87,1.12-1.81,1.64-2.81,1.56c-1-0.07-2.18-0.63-3.53-1.68l-11.28-8.78
	c-1.37-1.06-2.09-2.21-2.16-3.44c-0.07-1.22,0.63-2.76,2.07-4.62l11.44-14.69c2.16-2.79,4.57-3.15,7.21-1.09l11.28,8.78
	c1.35,1.05,2.19,2.04,2.52,2.97c0.34,0.93,0.09,1.95-0.76,3.04c-0.79,1.02-1.63,1.5-2.52,1.47c-0.89-0.04-1.98-0.56-3.27-1.57
	l-7.59-5.91L1032.93,421.38z M1032.93,421.38"/>
<path class="st1" d="M1070.45,455.17c0.49-0.38,0.76-0.9,0.79-1.57c0.04-0.68-0.16-1.31-0.59-1.87c-0.86-1.12-2.2-1.55-4.02-1.31
	c-1.84,0.25-3.55,0.99-5.16,2.21c-1.25,0.95-2.18,2.04-2.82,3.27c-0.64,1.22-0.91,2.5-0.81,3.84c0.09,1.34,0.57,2.59,1.46,3.76
	c0.66,0.86,1.47,1.56,2.42,2.1c0.94,0.53,1.8,0.89,2.6,1.07c0.78,0.18,1.54,0.4,2.28,0.67c0.75,0.27,1.27,0.6,1.57,1
	c0.39,0.51,0.52,1.11,0.39,1.81c-0.12,0.69-0.4,1.19-0.84,1.53c-0.49,0.38-1.18,0.67-2.06,0.88c-0.88,0.2-1.93,0.27-3.15,0.2
	c-1.21-0.07-2.46-0.29-3.72-0.65c-1.25-0.37-2.57-1.02-3.93-1.97c-1.36-0.94-2.57-2.09-3.62-3.48c-1.39-1.82-2.41-3.72-3.05-5.69
	c-0.63-1.97-0.88-3.92-0.74-5.84c0.15-1.93,0.75-3.8,1.79-5.64c1.04-1.83,2.52-3.48,4.44-4.95c3.79-2.89,7.64-4.04,11.57-3.45
	c3.93,0.59,7.29,2.72,10.09,6.39c1.43,1.87,2.43,3.84,3.02,5.91c0.58,2.07,0.67,4,0.25,5.8c-0.4,1.79-1.27,3.19-2.61,4.21
	c-1.54,1.18-3.33,1.73-5.38,1.66c-2.02-0.07-3.66-0.93-4.91-2.56c-0.71-0.94-1.1-1.97-1.16-3.11c-0.05-1.14,0.41-2.08,1.36-2.81
	c0.44-0.34,1.23-0.59,2.36-0.77C1069.4,455.63,1070.12,455.42,1070.45,455.17L1070.45,455.17z M1070.45,455.17"/>
<path class="st1" d="M1093.56,497.22l-14.75,6.13c-1.55,0.64-2.86,0.96-3.93,0.96c-1.07,0-1.91-0.25-2.54-0.77
	c-0.63-0.52-1.17-1.32-1.62-2.41c-0.66-1.6-0.72-2.94-0.16-4.02c0.55-1.08,1.91-2.08,4.07-3l15-6.33l-1.44-3.47
	c-0.71-1.71-0.97-3.1-0.79-4.18c0.19-1.09,0.98-1.92,2.36-2.5c0.84-0.35,1.58-0.46,2.22-0.32c0.62,0.15,1.18,0.51,1.66,1.11
	c0.49,0.59,0.97,1.46,1.44,2.6l7.24,17.43c0.63,1.52,0.82,2.73,0.57,3.63c-0.27,0.91-1.06,1.63-2.39,2.18
	c-0.9,0.38-1.68,0.47-2.35,0.29c-0.67-0.19-1.23-0.57-1.7-1.14c-0.45-0.57-0.89-1.38-1.32-2.41L1093.56,497.22z M1093.56,497.22"/>
<path class="st1" d="M771.8,614.42l2.48,7.21c0.51,1.48,0.63,2.61,0.37,3.38c-0.27,0.76-0.98,1.34-2.13,1.73
	c-0.95,0.33-1.75,0.21-2.41-0.37c-0.65-0.58-1.23-1.62-1.75-3.13l-2.34-6.8l-4.45,1.53l3.09,9.13c0.54,1.56,0.69,2.77,0.47,3.62
	c-0.22,0.84-0.92,1.46-2.1,1.87c-1.34,0.46-2.41,0.38-3.22-0.23c-0.8-0.62-1.49-1.74-2.05-3.36l-4.67-13.59
	c-0.57-1.66-0.54-3.02,0.08-4.09c0.61-1.07,2.04-1.99,4.28-2.76l17.71-6.09c3.35-1.15,5.58-0.13,6.68,3.06l4.67,13.59
	c0.56,1.62,0.73,2.93,0.5,3.9c-0.23,0.97-1,1.68-2.31,2.13c-1.24,0.43-2.22,0.38-2.93-0.14c-0.73-0.52-1.37-1.57-1.9-3.12
	l-3.15-9.15L771.8,614.42z M771.8,614.42"/>
<path class="st1" d="M794.96,646.96l-15.1,10.08c0.43,0.64,0.87,1.16,1.32,1.55c0.46,0.38,1.01,0.67,1.65,0.87
	c0.65,0.19,1.36,0.22,2.13,0.1c0.77-0.12,1.66-0.42,2.7-0.88c1.02-0.46,2.16-1.1,3.42-1.94c1.41-0.94,2.51-1.85,3.32-2.74
	c0.8-0.9,1.3-1.75,1.51-2.55c0.19-0.8,0.2-1.55,0.04-2.25C795.79,648.51,795.46,647.76,794.96,646.96L794.96,646.96z M797.21,639.23
	l3.62,5.42c2.56,3.84,3.51,7.66,2.85,11.47c-0.66,3.8-2.94,7-6.82,9.6c-1.25,0.84-2.55,1.53-3.89,2.09
	c-1.34,0.55-2.75,0.93-4.23,1.13c-1.48,0.21-2.91,0.18-4.28-0.08c-1.36-0.27-2.72-0.85-4.06-1.77c-1.34-0.92-2.54-2.17-3.59-3.75
	l-4.84-7.26c-1-1.5-1.35-2.84-1.02-4c0.32-1.16,1.48-2.41,3.48-3.74l15.58-10.4C792.94,635.99,795.34,636.42,797.21,639.23
	L797.21,639.23z M797.21,639.23"/>
<path class="st1" d="M834.88,687.82l-8.7,9.96c-2.84,3.25-5.67,4.9-8.48,4.94c-2.8,0.05-6.07-1.55-9.79-4.8
	c-3.54-3.09-5.48-6.12-5.82-9.08c-0.33-2.97,0.84-5.98,3.5-9.04l8.7-9.96c1.03-1.18,2.22-1.84,3.57-1.98
	c1.35-0.13,2.56,0.28,3.63,1.21c1.32,1.15,2.1,2.27,2.35,3.36c0.26,1.08-0.27,2.37-1.57,3.87l-9.51,10.89c-0.6,0.73-0.98,1.4-1.15,2
	c-0.16,0.61-0.13,1.15,0.09,1.64c0.21,0.48,0.59,0.96,1.14,1.44c0.56,0.49,1.07,0.83,1.54,1.01c0.48,0.17,0.92,0.19,1.34,0.05
	c0.43-0.15,0.79-0.35,1.09-0.59c0.31-0.23,0.67-0.59,1.08-1.06l9.54-10.93c0.66-0.76,1.31-1.31,1.95-1.66
	c0.64-0.35,1.26-0.48,1.85-0.38c0.61,0.09,1.16,0.28,1.64,0.55c0.49,0.27,1.03,0.66,1.61,1.16c1.29,1.13,1.99,2.29,2.09,3.47
	C836.69,685.08,836.12,686.39,834.88,687.82L834.88,687.82z M834.88,687.82"/>
<path class="st1" d="M862.21,705.49c0.27-0.56,0.26-1.15-0.02-1.77c-0.28-0.62-0.75-1.09-1.39-1.39c-1.28-0.61-2.68-0.38-4.2,0.7
	c-1.52,1.06-2.71,2.52-3.58,4.36c-0.67,1.42-1,2.82-1,4.21c-0.01,1.38,0.34,2.65,1.04,3.8c0.7,1.14,1.72,2.03,3.06,2.67
	c0.99,0.47,2.03,0.73,3.12,0.77c1.09,0.04,2.03-0.05,2.82-0.25c0.78-0.2,1.57-0.35,2.35-0.45c0.78-0.1,1.39-0.04,1.85,0.17
	c0.59,0.28,0.99,0.75,1.2,1.42c0.2,0.67,0.19,1.27-0.05,1.77c-0.26,0.55-0.73,1.13-1.42,1.73c-0.69,0.59-1.6,1.13-2.72,1.63
	c-1.12,0.5-2.32,0.89-3.62,1.14c-1.3,0.25-2.77,0.27-4.43,0.05c-1.65-0.2-3.27-0.68-4.84-1.42c-2.08-0.98-3.86-2.21-5.34-3.7
	c-1.48-1.47-2.61-3.09-3.37-4.88c-0.76-1.78-1.09-3.73-1-5.84c0.08-2.12,0.64-4.28,1.68-6.48c2.05-4.32,4.96-7.13,8.75-8.42
	c3.78-1.29,7.77-0.95,11.96,1.04c2.15,1.02,3.95,2.31,5.43,3.9c1.48,1.58,2.45,3.26,2.92,5.05c0.45,1.79,0.32,3.45-0.4,4.96
	c-0.84,1.77-2.18,3.09-4.03,3.96c-1.86,0.88-3.72,0.88-5.6-0.01c-1.06-0.5-1.89-1.25-2.47-2.25c-0.57-1-0.6-2.04-0.08-3.14
	c0.23-0.5,0.82-1.09,1.75-1.77C861.49,706.39,862.04,705.86,862.21,705.49L862.21,705.49z M862.21,705.49"/>
<path class="st1" d="M898.84,732.01c0.99,0.16,1.91-0.14,2.77-0.9c0.85-0.77,1.54-1.77,2.05-3c0.52-1.24,0.89-2.59,1.12-4.05
	c0.24-1.49,0.3-2.92,0.2-4.3c-0.1-1.38-0.45-2.59-1.02-3.65c-0.57-1.05-1.33-1.65-2.29-1.8c-0.93-0.15-1.83,0.18-2.68,1
	c-0.84,0.82-1.55,1.88-2.13,3.17c-0.56,1.29-0.96,2.66-1.2,4.11c-0.23,1.46-0.28,2.86-0.16,4.21c0.13,1.34,0.49,2.5,1.06,3.5
	C897.15,731.29,897.91,731.86,898.84,732.01L898.84,732.01z M905.85,737.91c-2.49,0.79-5.17,0.96-8.05,0.5
	c-2.88-0.47-5.37-1.46-7.48-2.99c-2.11-1.52-3.66-3.54-4.68-6.06c-1-2.54-1.25-5.36-0.75-8.49c0.76-4.73,2.78-8.27,6.08-10.6
	c3.3-2.33,7.21-3.13,11.73-2.41c4.52,0.73,8,2.72,10.42,5.97c2.41,3.25,3.24,7.24,2.48,11.97c-0.5,3.13-1.63,5.73-3.4,7.83
	C910.47,735.7,908.35,737.13,905.85,737.91L905.85,737.91z M905.85,737.91"/>
<g>
	<defs>
		<rect id="SVGID_00000183955993000456504810000015503977791142951320_" x="930.01" y="706.98" width="32" height="32.85"/>
	</defs>
	<clipPath id="SVGID_00000037656284177727385570000000286787111099710635_">
		<use xlink:href="#SVGID_00000183955993000456504810000015503977791142951320_"  style="overflow:visible;"/>
	</clipPath>
	<path style="clip-path:url(#SVGID_00000037656284177727385570000000286787111099710635_);fill:#8B3C7F;" d="M958.99,710.49
		l2.64,22.21c0.15,1.3-0.11,2.36-0.79,3.2c-0.67,0.84-1.74,1.35-3.21,1.52c-0.39,0.05-0.78,0.05-1.17,0
		c-0.39-0.05-0.81-0.16-1.27-0.34c-0.45-0.19-0.85-0.37-1.2-0.52c-0.34-0.17-0.79-0.45-1.33-0.82c-0.53-0.36-0.95-0.65-1.26-0.87
		c-0.31-0.22-0.79-0.57-1.45-1.06c-0.66-0.49-1.13-0.85-1.42-1.09l-8.98-6.66l1.14,9.57c0.17,1.44,0.01,2.45-0.47,3.05
		c-0.48,0.59-1.3,0.96-2.48,1.1c-1.29,0.15-2.28-0.03-2.96-0.55c-0.69-0.52-1.12-1.46-1.28-2.84l-2.52-21.29
		c-0.2-1.67,0.08-2.98,0.84-3.94c0.75-0.95,1.92-1.52,3.5-1.71c1.09-0.13,1.98-0.06,2.68,0.2c0.7,0.26,1.55,0.77,2.57,1.55
		l12.47,9.78l-1.14-9.61c-0.15-1.27,0.06-2.25,0.61-2.96c0.56-0.7,1.39-1.12,2.48-1.25c1.26-0.15,2.2,0.04,2.83,0.56
		C958.44,708.25,958.83,709.17,958.99,710.49L958.99,710.49z M958.99,710.49"/>
</g>
<path class="st1" d="M998.52,695.2l8.62,20.64c0.5,1.2,0.54,2.3,0.12,3.3c-0.41,0.99-1.3,1.77-2.66,2.34
	c-0.36,0.15-0.74,0.26-1.12,0.32c-0.39,0.06-0.82,0.07-1.31,0.02c-0.48-0.06-0.91-0.12-1.3-0.18c-0.38-0.07-0.88-0.21-1.5-0.42
	c-0.61-0.2-1.09-0.37-1.45-0.49c-0.36-0.12-0.92-0.33-1.68-0.62c-0.77-0.29-1.32-0.51-1.66-0.66l-10.46-3.95l3.71,8.89
	c0.56,1.34,0.68,2.36,0.38,3.06c-0.3,0.7-0.99,1.28-2.09,1.73c-1.2,0.5-2.2,0.6-3,0.29c-0.8-0.31-1.47-1.1-2.01-2.38l-8.26-19.78
	c-0.65-1.55-0.74-2.89-0.27-4.02c0.46-1.12,1.42-1.98,2.9-2.6c1.01-0.42,1.89-0.61,2.63-0.54c0.75,0.06,1.71,0.32,2.89,0.79l14.68,6
	l-3.73-8.93c-0.49-1.18-0.57-2.18-0.23-3.01c0.35-0.83,1.03-1.46,2.04-1.88c1.17-0.49,2.12-0.57,2.88-0.24
	C997.38,693.2,998.01,693.98,998.52,695.2L998.52,695.2z M998.52,695.2"/>
<path class="st1" d="M1023.74,687.7l6.02-4.68c1.24-0.96,2.27-1.45,3.08-1.44c0.81,0.01,1.59,0.49,2.33,1.45
	c0.62,0.8,0.76,1.59,0.43,2.4c-0.33,0.8-1.13,1.68-2.4,2.66l-5.68,4.41l2.89,3.71l7.63-5.88c1.3-1.01,2.39-1.55,3.27-1.61
	c0.87-0.06,1.68,0.4,2.45,1.38c0.87,1.12,1.14,2.16,0.82,3.12c-0.32,0.96-1.16,1.97-2.52,3.02l-11.34,8.82
	c-1.38,1.07-2.68,1.49-3.89,1.25c-1.21-0.23-2.54-1.29-4-3.16l-11.5-14.78c-2.18-2.8-1.94-5.24,0.73-7.31l11.34-8.82
	c1.36-1.05,2.53-1.63,3.53-1.73c0.99-0.1,1.92,0.4,2.77,1.5c0.8,1.03,1.07,1.97,0.82,2.82c-0.26,0.86-1.04,1.8-2.34,2.81l-7.64,5.94
	L1023.74,687.7z M1023.74,687.7"/>
<path class="st1" d="M1052.19,651.74c-0.5-0.38-1.07-0.5-1.74-0.36c-0.67,0.15-1.22,0.5-1.65,1.07c-0.86,1.12-0.93,2.54-0.19,4.25
	c0.72,1.7,1.89,3.18,3.51,4.41c1.25,0.95,2.55,1.57,3.9,1.86c1.35,0.3,2.67,0.23,3.94-0.21c1.27-0.45,2.35-1.26,3.25-2.43
	c0.67-0.87,1.14-1.83,1.41-2.89c0.27-1.06,0.38-2,0.35-2.81c-0.03-0.81-0.01-1.6,0.05-2.39c0.07-0.79,0.25-1.38,0.56-1.77
	c0.4-0.52,0.94-0.81,1.64-0.88c0.7-0.05,1.28,0.09,1.73,0.43c0.48,0.37,0.95,0.96,1.39,1.75c0.43,0.8,0.77,1.8,1.02,3
	c0.26,1.2,0.38,2.46,0.35,3.78c-0.03,1.32-0.32,2.77-0.88,4.34c-0.54,1.57-1.34,3.05-2.41,4.44c-1.4,1.83-2.98,3.31-4.73,4.45
	c-1.75,1.14-3.58,1.9-5.48,2.27c-1.9,0.37-3.88,0.29-5.93-0.24c-2.05-0.52-4.05-1.52-5.98-3c-3.8-2.91-5.93-6.34-6.4-10.32
	c-0.47-3.97,0.7-7.8,3.52-11.48c1.44-1.88,3.09-3.38,4.95-4.49c1.85-1.11,3.7-1.71,5.55-1.79c1.85-0.07,3.44,0.41,4.77,1.43
	c1.56,1.19,2.57,2.78,3.04,4.77c0.47,2,0.07,3.82-1.18,5.47c-0.71,0.93-1.62,1.58-2.72,1.94c-1.09,0.36-2.12,0.16-3.09-0.58
	c-0.44-0.34-0.89-1.03-1.36-2.09C1052.92,652.64,1052.52,651.99,1052.19,651.74L1052.19,651.74z M1052.19,651.74"/>
<path class="st1" d="M1071.13,614.32l14.84,6.18c1.55,0.64,2.7,1.35,3.46,2.11c0.75,0.76,1.17,1.55,1.25,2.37
	c0.07,0.82-0.12,1.78-0.57,2.86c-0.67,1.62-1.59,2.61-2.75,2.97c-1.16,0.37-2.84,0.11-5.04-0.77l-15.15-6.21l-1.45,3.48
	c-0.71,1.71-1.52,2.89-2.43,3.53c-0.91,0.63-2.05,0.66-3.45,0.08c-0.84-0.35-1.44-0.8-1.79-1.35c-0.35-0.55-0.48-1.2-0.41-1.97
	c0.08-0.77,0.36-1.73,0.84-2.88l7.3-17.52c0.64-1.53,1.37-2.53,2.21-2.98c0.83-0.45,1.92-0.4,3.25,0.16
	c0.9,0.38,1.52,0.86,1.86,1.46c0.35,0.61,0.47,1.28,0.39,2.02c-0.08,0.73-0.33,1.62-0.77,2.66L1071.13,614.32z M1071.13,614.32"/>
<path class="st1" d="M743.18,560.39c0-6.43,5.21-11.64,11.64-11.64c6.43,0,11.65,5.22,11.65,11.64c0,6.43-5.21,11.65-11.65,11.65
	C748.39,572.03,743.18,566.82,743.18,560.39L743.18,560.39z M743.18,560.39"/>
<path class="st1" d="M1081.43,560.39c0-6.43,5.22-11.64,11.65-11.64c6.43,0,11.64,5.22,11.64,11.64c0,6.43-5.22,11.65-11.64,11.65
	C1086.64,572.03,1081.42,566.82,1081.43,560.39L1081.43,560.39z M1081.43,560.39"/>
</svg>
