<svg xmlns="http://www.w3.org/2000/svg" version="1.1" xmlns:xlink="http://www.w3.org/1999/xlink" xmlns:svgjs="http://svgjs.dev/svgjs" width="1000" height="368" viewBox="0 0 1000 368"><g transform="matrix(1,0,0,1,-0.6060605667940422,-0.07587949278311612)"><svg viewBox="0 0 396 146" data-background-color="#ffffff" preserveAspectRatio="xMidYMid meet" height="368" width="1000" xmlns="http://www.w3.org/2000/svg" xmlns:xlink="http://www.w3.org/1999/xlink"><g id="tight-bounds" transform="matrix(1,0,0,1,0.24000001554964,0.030219001100093124)"><svg viewBox="0 0 395.52 145.9392927262704" height="145.9392927262704" width="395.52"><g><svg viewBox="0 0 662.4500482439105 244.43135999999998" height="145.9392927262704" width="395.52"><g transform="matrix(1,0,0,1,0,87.49428740029182)"><svg viewBox="0 0 395.52 69.44278519941635" height="69.44278519941635" width="395.52"><g id="textblocktransform"><svg viewBox="0 0 395.52 69.44278519941635" height="69.44278519941635" width="395.52" id="textblock"><g><svg viewBox="0 0 395.52 38.12109362054681" height="38.12109362054681" width="395.52"><g transform="matrix(1,0,0,1,0,0)"><svg width="395.52" viewBox="3.450000047683716 -34.54999923706055 362.0799865722656 34.89999771118164" height="38.12109362054681" data-palette-color="#a437db"><path d="M14.95-20.3L23.55-20.3Q26.2-20.3 27.28-19.45 28.35-18.6 28.35-16.55L28.35-16.55Q28.35-14.85 27.08-14.13 25.8-13.4 23.1-13.4L23.1-13.4 15-13.4 15-8.1 25.85-8.05Q28.65-8.05 29.88-7.23 31.1-6.4 31.1-4.3L31.1-4.3Q31.1-1.9 29.68-0.95 28.25 0 25.35 0L25.35 0 9.15 0Q6.2 0 4.83-1.58 3.45-3.15 3.45-7.15L3.45-7.15 3.45-28.25Q3.45-34.25 9.15-34.25L9.15-34.25 25.35-34.25Q28.25-34.25 29.68-33.35 31.1-32.45 31.1-30.1L31.1-30.1Q31.1-27.9 29.88-27.03 28.65-26.15 25.85-26.15L25.85-26.15 14.95-26.15 14.95-20.3ZM48.55-27.25L48.55-6.8Q49.85-6.8 50.82-7.08 51.8-7.35 52.67-8.08 53.55-8.8 54.1-10 54.65-11.2 54.97-13.08 55.3-14.95 55.3-17.5L55.3-17.5Q55.3-20.35 54.8-22.33 54.3-24.3 53.35-25.33 52.4-26.35 51.27-26.78 50.15-27.2 48.55-27.25L48.55-27.25ZM42.7-34.2L50.05-34.2Q57.85-34.2 62.57-29.7 67.3-25.2 67.3-17.3L67.3-17.3Q67.3-14.75 66.82-12.35 66.35-9.95 65.25-7.68 64.15-5.4 62.5-3.73 60.85-2.05 58.3-1.03 55.75 0 52.55 0L52.55 0 42.7 0Q39.65 0 38.32-1.55 37-3.1 37-7.15L37-7.15 37-28.25Q37-34.2 42.7-34.2L42.7-34.2ZM103.3-28.25L103.3-28.25 103.3-13.35Q103.3-6.05 99.77-2.88 96.25 0.3 87.89 0.3L87.89 0.3Q79.94 0.3 76.22-3.1 72.5-6.5 72.5-13.35L72.5-13.35 72.5-28.25Q72.5-30.9 74.07-32.58 75.64-34.25 78.05-34.25L78.05-34.25Q81-34.25 82.52-33.15 84.05-32.05 84.05-28.7L84.05-28.7 84.05-12.4Q84.09-10.8 84.57-9.85 85.05-8.9 85.84-8.53 86.64-8.15 87.89-8.15 89.14-8.15 89.94-8.45 90.75-8.75 91.12-9.4 91.5-10.05 91.62-10.7 91.75-11.35 91.75-12.4L91.75-12.4 91.75-28.75Q91.75-30.45 92.17-31.6 92.59-32.75 93.47-33.3 94.34-33.85 95.27-34.05 96.19-34.25 97.5-34.25L97.5-34.25Q100.39-34.25 101.84-32.85 103.3-31.45 103.3-28.25ZM130.09-24.85L130.09-24.85Q130.09-25.9 129.22-26.65 128.34-27.4 127.14-27.4L127.14-27.4Q124.74-27.4 123.19-24.68 121.64-21.95 121.64-18.5L121.64-18.5Q121.64-15.85 122.64-13.73 123.64-11.6 125.54-10.35 127.44-9.1 129.94-9.1L129.94-9.1Q131.79-9.1 133.49-9.83 135.19-10.55 136.24-11.43 137.29-12.3 138.42-13.03 139.54-13.75 140.39-13.75L140.39-13.75Q141.49-13.75 142.29-12.88 143.09-12 143.09-11.05L143.09-11.05Q143.09-10 142.47-8.6 141.84-7.2 140.49-5.63 139.14-4.05 137.34-2.73 135.54-1.4 132.87-0.53 130.19 0.35 127.24 0.35L127.24 0.35Q123.34 0.35 120.02-0.83 116.69-2 114.24-4.17 111.79-6.35 110.39-9.65 108.99-12.95 108.99-17.05L108.99-17.05Q108.99-25.15 113.84-29.85 118.69-34.55 126.54-34.55L126.54-34.55Q130.54-34.55 133.94-33.2 137.34-31.85 139.34-29.45 141.34-27.05 141.34-24.2L141.34-24.2Q141.34-20.9 139.14-18.23 136.94-15.55 133.44-15.55L133.44-15.55Q131.44-15.55 129.84-16.65 128.24-17.75 128.24-19.8L128.24-19.8Q128.24-20.75 129.17-22.45 130.09-24.15 130.09-24.85ZM165.69-7L165.69-7Q167.39-7 168.62-8.5 169.84-10 170.37-12.2 170.89-14.4 170.89-16.9L170.89-16.9Q170.89-19.45 170.34-21.73 169.79-24 168.56-25.6 167.34-27.2 165.69-27.2L165.69-27.2Q164.09-27.2 162.89-25.6 161.69-24 161.09-21.7 160.49-19.4 160.49-16.9L160.49-16.9Q160.49-14.4 161.06-12.2 161.64-10 162.87-8.5 164.09-7 165.69-7ZM174.54-1.68Q170.59 0.3 165.67 0.3 160.74 0.3 156.81-1.68 152.89-3.65 150.54-7.6 148.19-11.55 148.19-16.9L148.19-16.9Q148.19-25 153.06-29.78 157.94-34.55 165.69-34.55 173.44-34.55 178.34-29.78 183.24-25 183.24-16.9L183.24-16.9Q183.24-11.55 180.87-7.6 178.49-3.65 174.54-1.68ZM221.14-29.95L221.14-4.75Q221.14-2.55 219.84-1.28 218.54 0 216.04 0L216.04 0Q215.39 0 214.74-0.15 214.09-0.3 213.36-0.7 212.64-1.1 212.09-1.45 211.54-1.8 210.71-2.53 209.89-3.25 209.41-3.68 208.94-4.1 207.94-5.05 206.94-6 206.49-6.45L206.49-6.45 197.34-15.1 197.34-4.25Q197.34-1.8 196.41-0.9 195.49 0 193.49 0L193.49 0Q191.29 0 190.24-1 189.19-2 189.19-4.35L189.19-4.35 189.19-28.5Q189.19-31.35 190.64-32.8 192.09-34.25 194.79-34.25L194.79-34.25Q196.64-34.25 197.76-33.68 198.89-33.1 200.44-31.6L200.44-31.6 213.09-19 213.09-29.9Q213.09-32.05 214.16-33.13 215.24-34.2 217.09-34.2L217.09-34.2Q219.24-34.2 220.19-33.2 221.14-32.2 221.14-29.95L221.14-29.95ZM259.79-29.95L259.79-4.75Q259.79-2.55 258.49-1.28 257.19 0 254.69 0L254.69 0Q254.04 0 253.39-0.15 252.74-0.3 252.01-0.7 251.29-1.1 250.74-1.45 250.19-1.8 249.36-2.53 248.54-3.25 248.06-3.68 247.59-4.1 246.59-5.05 245.59-6 245.14-6.45L245.14-6.45 235.99-15.1 235.99-4.25Q235.99-1.8 235.06-0.9 234.14 0 232.14 0L232.14 0Q229.94 0 228.89-1 227.84-2 227.84-4.35L227.84-4.35 227.84-28.5Q227.84-31.35 229.29-32.8 230.74-34.25 233.44-34.25L233.44-34.25Q235.29-34.25 236.41-33.68 237.54-33.1 239.09-31.6L239.09-31.6 251.74-19 251.74-29.9Q251.74-32.05 252.81-33.13 253.89-34.2 255.74-34.2L255.74-34.2Q257.88-34.2 258.84-33.2 259.79-32.2 259.79-29.95L259.79-29.95ZM278.08-20.3L286.68-20.3Q289.33-20.3 290.41-19.45 291.48-18.6 291.48-16.55L291.48-16.55Q291.48-14.85 290.21-14.13 288.93-13.4 286.23-13.4L286.23-13.4 278.13-13.4 278.13-8.1 288.98-8.05Q291.78-8.05 293.01-7.23 294.23-6.4 294.23-4.3L294.23-4.3Q294.23-1.9 292.81-0.95 291.38 0 288.48 0L288.48 0 272.28 0Q269.33 0 267.96-1.58 266.58-3.15 266.58-7.15L266.58-7.15 266.58-28.25Q266.58-34.25 272.28-34.25L272.28-34.25 288.48-34.25Q291.38-34.25 292.81-33.35 294.23-32.45 294.23-30.1L294.23-30.1Q294.23-27.9 293.01-27.03 291.78-26.15 288.98-26.15L288.98-26.15 278.08-26.15 278.08-20.3ZM318.33-24.85L318.33-24.85Q318.33-25.9 317.45-26.65 316.58-27.4 315.38-27.4L315.38-27.4Q312.98-27.4 311.43-24.68 309.88-21.95 309.88-18.5L309.88-18.5Q309.88-15.85 310.88-13.73 311.88-11.6 313.78-10.35 315.68-9.1 318.18-9.1L318.18-9.1Q320.03-9.1 321.73-9.83 323.43-10.55 324.48-11.43 325.53-12.3 326.66-13.03 327.78-13.75 328.63-13.75L328.63-13.75Q329.73-13.75 330.53-12.88 331.33-12 331.33-11.05L331.33-11.05Q331.33-10 330.7-8.6 330.08-7.2 328.73-5.63 327.38-4.05 325.58-2.73 323.78-1.4 321.11-0.53 318.43 0.35 315.48 0.35L315.48 0.35Q311.58 0.35 308.25-0.83 304.93-2 302.48-4.17 300.03-6.35 298.63-9.65 297.23-12.95 297.23-17.05L297.23-17.05Q297.23-25.15 302.08-29.85 306.93-34.55 314.78-34.55L314.78-34.55Q318.78-34.55 322.18-33.2 325.58-31.85 327.58-29.45 329.58-27.05 329.58-24.2L329.58-24.2Q329.58-20.9 327.38-18.23 325.18-15.55 321.68-15.55L321.68-15.55Q319.68-15.55 318.08-16.65 316.48-17.75 316.48-19.8L316.48-19.8Q316.48-20.75 317.41-22.45 318.33-24.15 318.33-24.85ZM355.13-25.6L355.13-7.5Q355.13-4.65 354.43-2.98 353.73-1.3 352.5-0.65 351.28 0 349.28 0L349.28 0Q346.33 0 345-1.58 343.68-3.15 343.63-7.15L343.63-7.15 343.53-25.6 339.28-25.6Q336.13-25.6 334.55-26.6 332.98-27.6 332.98-30.15L332.98-30.15Q332.98-31.7 333.6-32.6 334.23-33.5 335.48-33.88 336.73-34.25 338.83-34.25L338.83-34.25 360.23-34.25Q363.03-34.25 364.28-33.25 365.53-32.25 365.53-29.8L365.53-29.8Q365.53-28.15 364.8-27.23 364.08-26.3 362.88-25.95 361.68-25.6 359.78-25.6L359.78-25.6 355.13-25.6Z" opacity="1" transform="matrix(1,0,0,1,0,0)" fill="#a437db" class="wordmark-text-0" data-fill-palette-color="primary" id="text-0"></path></svg></g></svg></g><g transform="matrix(1,0,0,1,163.310208,47.12056891811102)"><svg viewBox="0 0 232.209792 22.322216281305334" height="22.322216281305334" width="232.209792"><g transform="matrix(1,0,0,1,0,0)"><svg width="232.209792" viewBox="3 -37.5 395.260009765625 38" height="22.322216281305334" data-palette-color="#b19dd0"><path d="M28.5 0L3 0 3-0.8 7.05-2.8 7.05-30.2 3-32.2 3-33 16.85-33 16.85-32.2 12.3-30.2 12.3-2.75 24.15-2.75 27.7-11.35 28.5-11.35 28.5 0ZM44.75 0.5L44.75 0.5Q39.85 0.5 37-2.45 34.15-5.4 34.15-10.3L34.15-10.3Q34.15-14 35.67-16.9 37.2-19.8 39.72-21.43 42.25-23.05 45.2-23.05L45.2-23.05Q49.2-23.05 51.45-20.33 53.7-17.6 53.75-12.5L53.75-12.5 53.5-12.25 38.75-12.25Q38.8-9.95 39.62-8 40.45-6.05 42.27-4.85 44.1-3.65 47.2-3.65L47.2-3.65Q50.05-3.65 53.65-5.55L53.65-5.55 53.8-5.55 53.8-4.95Q52.6-2.65 50.25-1.07 47.9 0.5 44.75 0.5ZM44.3-20.85L44.3-20.85Q42.1-20.85 40.67-19.2 39.25-17.55 38.85-14.55L38.85-14.55 49.5-14.55Q49-17.95 47.7-19.4 46.4-20.85 44.3-20.85ZM63.9 0.5L63.9 0.5Q61.5 0.5 59.92-0.93 58.35-2.35 58.35-4.85L58.35-4.85Q58.35-7.3 60.12-9.08 61.9-10.85 66.3-11.9L66.3-11.9 71.05-13 71.05-16.5Q71.05-18.3 69.72-19.5 68.4-20.7 66.65-20.7L66.65-20.7Q64.8-20.7 64.07-19.75 63.35-18.8 63.35-17.15L63.35-17.15 63.35-15.55 63.1-15.3 60.35-15.3Q59.6-15.3 59.32-15.58 59.05-15.85 59.05-16.75L59.05-16.75Q59.05-17.85 59.72-18.98 60.4-20.1 61.8-20.95L61.8-20.95Q63.3-21.9 64.84-22.48 66.4-23.05 68.15-23.05L68.15-23.05Q70.05-23.05 71.82-22.53 73.59-22 74.7-20.75 75.8-19.5 75.8-17.4L75.8-17.4 75.8-3.45Q76.15-3.1 76.77-2.85 77.4-2.6 78.5-2.6L78.5-2.6 80.25-2.6 80.45-2.5 80.45-2.2Q79.84-1.15 78.62-0.33 77.4 0.5 75.65 0.5L75.65 0.5Q73.95 0.5 72.9-0.33 71.84-1.15 71.4-2.6L71.4-2.6 71.05-2.6Q69.75-1.3 67.87-0.4 66 0.5 63.9 0.5ZM62.9-5.95L62.9-5.95Q62.9-2.85 66.55-2.85L66.55-2.85Q67.65-2.85 68.67-3.08 69.7-3.3 71.05-3.85L71.05-3.85 71.05-11.25Q67.45-10.55 65.7-9.75 63.95-8.95 63.42-8.03 62.9-7.1 62.9-5.95ZM94.84 0L83.24 0 83.24-0.8 86.44-2.4 86.44-17.3 83.39-19.85 83.39-20.25 90.29-23.05 90.69-23.05 91.14-18.75 91.34-18.75Q92.49-20.65 93.44-21.58 94.39-22.5 95.24-22.78 96.09-23.05 96.99-23.05L96.99-23.05Q97.44-23.05 97.97-22.93 98.49-22.8 98.84-22.65L98.84-22.65Q99.44-22.4 99.89-22.05 100.34-21.7 100.34-21.25L100.34-21.25Q100.34-20.8 100.14-20.35L100.14-20.35 99.09-17.7 98.74-17.7 96.99-18.4Q96.39-18.6 95.84-18.68 95.29-18.75 94.74-18.75L94.74-18.75Q92.59-18.75 91.19-16.7L91.19-16.7 91.19-2.4 94.84-0.8 94.84 0ZM114.49 0L103.29 0 103.29-0.8 106.49-2.4 106.49-17.35 103.44-19.85 103.44-20.25 110.34-23.05 110.69-23.05 111.14-19.35 111.39-19.35Q113.29-21.2 115.04-22.13 116.79-23.05 118.99-23.05L118.99-23.05Q121.89-23.05 123.82-21.58 125.74-20.1 125.74-17.15L125.74-17.15 125.74-2.4 128.89-0.8 128.89 0 117.69 0 117.69-0.8 120.99-2.4 120.99-14.85Q120.99-17 119.69-18.07 118.39-19.15 116.34-19.15L116.34-19.15Q115.09-19.15 113.59-18.75 112.09-18.35 111.19-17.5L111.19-17.5 111.19-2.4 114.49-0.8 114.49 0ZM163.14 0.5L163.14 0.5Q159.54 0.5 156.46-0.7 153.39-1.9 151.14-4.08 148.89-6.25 147.61-9.2 146.34-12.15 146.34-15.65L146.34-15.65Q146.34-19.5 147.76-22.75 149.19-26 151.69-28.43 154.19-30.85 157.44-32.18 160.69-33.5 164.39-33.5L164.39-33.5Q167.04-33.5 168.89-33.2 170.74-32.9 172.21-32.35 173.69-31.8 175.09-31.1L175.09-31.1 175.39-22.7 174.59-22.7 170.99-28.7Q169.04-30 167.64-30.5 166.24-31 164.39-31L164.39-31Q160.69-31 157.79-29.3 154.89-27.6 153.24-24.6 151.59-21.6 151.59-17.75L151.59-17.75Q151.59-12.9 153.34-9.45 155.09-6 158.01-4.17 160.94-2.35 164.59-2.35L164.59-2.35Q166.04-2.35 167.46-2.53 168.89-2.7 170.34-3.2L170.34-3.2 170.34-11.75 165.89-13.8 165.89-14.6 179.09-14.6 179.09-13.8 175.59-11.6 175.59-3.7Q174.09-2.4 171.99-1.48 169.89-0.55 167.59-0.03 165.29 0.5 163.14 0.5ZM195.28 0L183.68 0 183.68-0.8 186.88-2.4 186.88-17.3 183.83-19.85 183.83-20.25 190.73-23.05 191.13-23.05 191.58-18.75 191.78-18.75Q192.93-20.65 193.88-21.58 194.83-22.5 195.68-22.78 196.53-23.05 197.43-23.05L197.43-23.05Q197.88-23.05 198.41-22.93 198.93-22.8 199.28-22.65L199.28-22.65Q199.88-22.4 200.33-22.05 200.78-21.7 200.78-21.25L200.78-21.25Q200.78-20.8 200.58-20.35L200.58-20.35 199.53-17.7 199.18-17.7 197.43-18.4Q196.83-18.6 196.28-18.68 195.73-18.75 195.18-18.75L195.18-18.75Q193.03-18.75 191.63-16.7L191.63-16.7 191.63-2.4 195.28-0.8 195.28 0ZM215.08 0.5L215.08 0.5Q211.73 0.5 209.21-1.07 206.68-2.65 205.26-5.33 203.83-8 203.83-11.3L203.83-11.3Q203.83-14.6 205.26-17.28 206.68-19.95 209.21-21.5 211.73-23.05 215.08-23.05L215.08-23.05Q218.43-23.05 220.93-21.5 223.43-19.95 224.86-17.28 226.28-14.6 226.28-11.3L226.28-11.3Q226.28-8 224.86-5.33 223.43-2.65 220.93-1.07 218.43 0.5 215.08 0.5ZM215.73-1.7L215.73-1.7Q217.63-1.7 218.83-2.95 220.03-4.2 220.58-6.15 221.13-8.1 221.13-10.3L221.13-10.3Q221.13-12.95 220.46-15.38 219.78-17.8 218.33-19.35 216.88-20.9 214.53-20.9L214.53-20.9Q212.63-20.9 211.38-19.68 210.13-18.45 209.56-16.5 208.98-14.55 208.98-12.35L208.98-12.35Q208.98-9.7 209.68-7.25 210.38-4.8 211.88-3.25 213.38-1.7 215.73-1.7ZM239.83 0L238.58 0 230.63-20.25 227.33-21.75 227.33-22.55 239.78-22.55 239.78-21.75 235.83-20.3 235.83-20 240.83-6.8 241.03-6.8 247.83-22.55 249.08-22.55 255.88-6.95 256.08-6.95 260.98-19.75 260.98-20 257.48-21.75 257.48-22.55 267.28-22.55 267.28-21.75 263.63-20.05 255.18 0 253.93 0 246.98-15.65 239.83 0ZM307.97 0L281.47 0 281.47-0.8 285.52-2.8 285.52-30.2 281.47-32.2 281.47-33 306.57-33 306.57-24.4 305.77-24.4 302.52-30.25 290.77-30.25 290.77-18.4 299.07-18.4 301.62-22.6 302.42-22.6 302.42-11.55 301.62-11.55 299.07-15.65 290.77-15.65 290.77-2.75 303.87-2.75 307.17-9.35 307.97-9.35 307.97 0ZM321.52 0L312.62 0 312.62-0.8 315.32-2.5 321.92-11 315.17-20.25 312.82-21.75 312.82-22.55 323.92-22.55 323.92-21.75 320.67-20.3 320.67-20 325.12-13.95 329.12-19.7 329.12-20 326.37-21.75 326.37-22.55 334.82-22.55 334.82-21.75 332.17-20.05 326.22-12.45 333.62-2.3 335.67-0.8 335.67 0 325.12 0 325.12-0.8 328.07-2.25 328.07-2.55 323.02-9.45 318.47-2.85 318.47-2.55 321.52-0.8 321.52 0ZM349.77 0.5L349.77 0.5Q344.92 0.5 342.07-2.45 339.22-5.4 339.22-10.3L339.22-10.3Q339.22-14 340.74-16.9 342.27-19.8 344.92-21.43 347.57-23.05 350.97-23.05L350.97-23.05Q353.07-23.05 354.97-22.38 356.87-21.7 357.87-20.6L357.87-20.6Q358.62-19.7 358.62-19.1L358.62-19.1Q358.62-18.7 358.49-18.48 358.37-18.25 358.02-17.9L358.02-17.9 355.97-16.25 355.62-16.25 353.92-18.55Q353.17-19.6 352.12-20.23 351.07-20.85 349.47-20.85L349.47-20.85Q346.82-20.85 345.32-18.65 343.82-16.45 343.82-12.6L343.82-12.6Q343.82-10.25 344.59-8.2 345.37-6.15 347.19-4.9 349.02-3.65 352.17-3.65L352.17-3.65Q353.57-3.65 355.17-4.13 356.77-4.6 358.57-5.55L358.57-5.55 358.72-5.55 358.72-4.95Q357.57-2.65 355.22-1.07 352.87 0.5 349.77 0.5ZM373.81 0.5L373.81 0.5Q368.92 0.5 366.06-2.45 363.22-5.4 363.22-10.3L363.22-10.3Q363.22-14 364.74-16.9 366.26-19.8 368.79-21.43 371.31-23.05 374.26-23.05L374.26-23.05Q378.26-23.05 380.51-20.33 382.76-17.6 382.81-12.5L382.81-12.5 382.56-12.25 367.81-12.25Q367.87-9.95 368.69-8 369.51-6.05 371.34-4.85 373.17-3.65 376.26-3.65L376.26-3.65Q379.12-3.65 382.72-5.55L382.72-5.55 382.87-5.55 382.87-4.95Q381.67-2.65 379.31-1.07 376.97 0.5 373.81 0.5ZM373.37-20.85L373.37-20.85Q371.17-20.85 369.74-19.2 368.31-17.55 367.92-14.55L367.92-14.55 378.56-14.55Q378.06-17.95 376.76-19.4 375.47-20.85 373.37-20.85ZM398.26 0L387.26 0 387.26-0.8 390.41-2.4 390.41-31.8 387.41-34.35 387.41-34.75 394.76-37.5 395.16-37.5 395.16-2.4 398.26-0.8 398.26 0Z" opacity="1" transform="matrix(1,0,0,1,0,0)" fill="#b19dd0" class="slogan-text-1" data-fill-palette-color="secondary" id="text-1"></path></svg></g></svg></g></svg></g></svg></g><g transform="matrix(1,0,0,1,418.0186882439105,0)"><svg viewBox="0 0 244.43135999999998 244.43135999999998" height="244.43135999999998" width="244.43135999999998"><g><svg viewBox="0 0 244.43135999999998 244.43135999999998" height="244.43135999999998" width="244.43135999999998"><g transform="matrix(1,0,0,1,64.60265593644992,64.60265593644992)"><svg viewBox="0 0 115.22604812710014 115.22604812710014" height="115.22604812710014" width="115.22604812710014"><g><svg xmlns="http://www.w3.org/2000/svg" xmlns:xlink="http://www.w3.org/1999/xlink" version="1.1" x="0" y="0" viewBox="1 1 126 126" style="enable-background:new 0 0 128 128;" xml:space="preserve" height="115.22604812710014" width="115.22604812710014" class="icon-s-0" data-fill-palette-color="accent" id="s-0"><g fill="#8b3c7f" data-fill-palette-color="accent"><path d="M110.937 52.703c-7.691-4.44-16.653-5.62-25.231-3.321-8.267 2.215-15.218 7.411-19.687 14.668 9.403 17.409 3.288 39.323-13.954 49.278-5.771 3.331-12.084 4.915-18.313 4.915-0.632 0-1.264-0.028-1.894-0.062C41.271 123.777 52.257 127 64 127c31.814 0 58.104-23.586 62.378-54.223C124.154 64.602 118.837 57.265 110.937 52.703z" fill="#8b3c7f" data-fill-palette-color="accent"></path><path d="M64 1c-8.339 0-16.291 1.635-23.575 4.577C34.448 11.591 30.749 19.872 30.749 29c0 18.01 14.396 32.711 32.285 33.226 4.938-8.026 12.624-13.774 21.766-16.224 9.482-2.54 19.386-1.237 27.887 3.671 6.348 3.666 11.181 8.957 14.295 15.043C126.983 64.476 127 64.24 127 64 127 29.206 98.795 1 64 1z" fill="#8b3c7f" data-fill-palette-color="accent"></path><path d="M50.314 110.297c15.598-9.006 21.13-28.825 12.632-44.574C43.168 65.162 27.249 48.91 27.249 29c0-7.337 2.17-14.175 5.891-19.918C13.961 19.882 1 40.421 1 64c0 20.167 9.486 38.105 24.228 49.636C33.414 115.793 42.419 114.854 50.314 110.297z" fill="#8b3c7f" data-fill-palette-color="accent"></path></g></svg></g></svg></g><g><path d="M11.75 86.126l1.637-4.767c0.336-0.979 0.731-1.614 1.183-1.903 0.453-0.29 1.058-0.304 1.816-0.044v0c0.625 0.215 0.989 0.605 1.092 1.17 0.111 0.561-0.005 1.34-0.347 2.338v0l-1.542 4.492 2.937 1.008 2.094-6.008c0.354-1.03 0.76-1.72 1.22-2.07 0.466-0.349 1.084-0.391 1.855-0.126v0c0.891 0.306 1.419 0.784 1.584 1.433 0.174 0.646 0.076 1.506-0.293 2.58v0l-3.084 8.984c-0.373 1.087-0.938 1.786-1.695 2.098-0.755 0.306-1.871 0.205-3.349-0.303v0l-11.703-4.017c-2.217-0.761-2.965-2.194-2.243-4.298v0l3.084-8.983c0.369-1.074 0.81-1.816 1.325-2.226 0.511-0.418 1.202-0.477 2.074-0.177v0c0.809 0.278 1.299 0.7 1.471 1.267 0.166 0.565 0.072 1.363-0.281 2.393v0l-2.075 6.046z" fill="#8b3c7f" data-fill-palette-color="accent"></path><path d="M21.471 57.657l9.977 6.655c0.282-0.422 0.484-0.821 0.606-1.198 0.122-0.376 0.161-0.784 0.117-1.222-0.05-0.443-0.208-0.886-0.475-1.329-0.27-0.437-0.676-0.913-1.217-1.425-0.541-0.513-1.225-1.046-2.053-1.599v0c-0.928-0.619-1.767-1.058-2.517-1.318-0.752-0.269-1.397-0.362-1.934-0.278-0.541 0.089-1.003 0.27-1.387 0.544-0.384 0.274-0.756 0.664-1.117 1.17zM16.18 58.258l2.396-3.592c1.69-2.534 3.777-4.08 6.262-4.639 2.488-0.564 5.019 0.012 7.591 1.728v0c0.828 0.552 1.579 1.166 2.253 1.84 0.68 0.678 1.27 1.442 1.773 2.29 0.502 0.849 0.845 1.724 1.03 2.626 0.189 0.897 0.172 1.873-0.051 2.929-0.219 1.05-0.675 2.095-1.368 3.134v0l-3.208 4.81c-0.66 0.989-1.387 1.532-2.182 1.628-0.785 0.094-1.837-0.298-3.153-1.177v0l-10.294-6.866c-1.934-1.29-2.283-2.86-1.049-4.711z" fill="#8b3c7f" data-fill-palette-color="accent"></path><path d="M50.323 26.075v0l5.746 6.582c1.876 2.148 2.704 4.143 2.484 5.983-0.224 1.845-1.564 3.84-4.02 5.984v0c-2.34 2.043-4.495 3.042-6.466 2.999-1.971-0.044-3.837-1.074-5.599-3.092v0l-5.746-6.582c-0.681-0.78-1.005-1.618-0.972-2.515 0.032-0.897 0.401-1.653 1.105-2.269v0c0.87-0.76 1.67-1.174 2.399-1.243 0.738-0.068 1.538 0.391 2.399 1.377v0l6.28 7.192c0.423 0.464 0.828 0.776 1.215 0.935 0.382 0.154 0.74 0.183 1.073 0.087 0.333-0.096 0.683-0.304 1.051-0.625 0.367-0.321 0.632-0.627 0.793-0.919 0.157-0.297 0.208-0.589 0.152-0.877-0.061-0.283-0.155-0.538-0.282-0.765-0.132-0.222-0.334-0.489-0.606-0.801v0l-6.299-7.215c-0.439-0.503-0.743-0.978-0.912-1.425-0.169-0.447-0.197-0.865-0.085-1.256 0.116-0.385 0.286-0.724 0.509-1.016 0.219-0.298 0.522-0.616 0.909-0.954v0c0.85-0.742 1.669-1.094 2.458-1.055 0.788 0.039 1.593 0.529 2.414 1.47z" fill="#8b3c7f" data-fill-palette-color="accent"></path><path d="M74.666 15.006v0c-0.177-0.374-0.481-0.619-0.912-0.733-0.44-0.117-0.871-0.076-1.293 0.124v0c-0.845 0.4-1.316 1.209-1.412 2.429-0.093 1.226 0.147 2.446 0.721 3.66v0c0.445 0.942 1.023 1.703 1.733 2.284 0.704 0.583 1.499 0.936 2.384 1.056 0.882 0.13 1.763-0.013 2.644-0.43v0c0.652-0.308 1.219-0.735 1.701-1.28 0.478-0.536 0.83-1.05 1.056-1.54 0.223-0.482 0.474-0.944 0.752-1.387 0.276-0.448 0.565-0.743 0.867-0.886v0c0.386-0.183 0.796-0.184 1.228-0.004 0.429 0.174 0.723 0.427 0.879 0.759v0c0.177 0.374 0.271 0.862 0.281 1.463 0.011 0.601-0.091 1.292-0.305 2.073-0.214 0.781-0.527 1.557-0.939 2.327-0.414 0.765-1.023 1.525-1.826 2.282-0.797 0.753-1.717 1.377-2.762 1.87v0c-1.377 0.651-2.751 1.049-4.122 1.195-1.368 0.137-2.669 0.028-3.901-0.328-1.229-0.365-2.366-1.013-3.413-1.945-1.046-0.931-1.912-2.122-2.596-3.571v0c-1.353-2.862-1.564-5.529-0.634-8.001 0.93-2.471 2.781-4.362 5.553-5.672v0c1.413-0.668 2.833-1.047 4.26-1.138 1.427-0.091 2.695 0.122 3.805 0.64 1.106 0.512 1.898 1.272 2.374 2.28v0c0.551 1.166 0.661 2.406 0.33 3.723-0.328 1.307-1.111 2.254-2.349 2.839v0c-0.707 0.334-1.435 0.442-2.185 0.323-0.747-0.127-1.292-0.553-1.635-1.278v0c-0.157-0.332-0.215-0.877-0.174-1.635 0.044-0.752 0.007-1.252-0.11-1.499z" fill="#8b3c7f" data-fill-palette-color="accent"></path><path d="M106.444 16.832v0c0.66-0.106 1.177-0.483 1.554-1.132 0.382-0.657 0.607-1.427 0.675-2.31 0.061-0.882 0.015-1.805-0.139-2.768v0c-0.158-0.983-0.412-1.896-0.764-2.739-0.352-0.843-0.815-1.537-1.389-2.081-0.568-0.545-1.171-0.766-1.811-0.664v0c-0.613 0.098-1.104 0.495-1.473 1.191-0.362 0.694-0.588 1.501-0.678 2.422-0.088 0.927-0.055 1.872 0.1 2.835v0c0.154 0.963 0.412 1.852 0.772 2.667 0.354 0.816 0.815 1.476 1.383 1.98 0.567 0.498 1.157 0.697 1.77 0.599zM112.064 19.097c-1.401 1.009-3.051 1.666-4.951 1.971-1.906 0.306-3.676 0.197-5.308-0.327-1.64-0.522-3.033-1.472-4.181-2.85-1.154-1.378-1.897-3.099-2.228-5.163v0c-0.501-3.126 0.041-5.76 1.625-7.902 1.59-2.149 3.879-3.463 6.867-3.941 2.994-0.48 5.582 0.052 7.765 1.596 2.188 1.537 3.532 3.868 4.033 6.994v0c0.331 2.064 0.16 3.932-0.512 5.602-0.673 1.67-1.709 3.01-3.11 4.02z" fill="#8b3c7f" data-fill-palette-color="accent"></path><path d="M147.956 4.368l-1.743 14.665c-0.102 0.856-0.437 1.499-1.006 1.929-0.563 0.438-1.329 0.599-2.297 0.483v0c-0.252-0.03-0.501-0.09-0.746-0.179-0.245-0.09-0.498-0.227-0.758-0.413-0.267-0.186-0.498-0.362-0.694-0.527-0.196-0.158-0.437-0.398-0.721-0.721-0.292-0.317-0.521-0.57-0.687-0.758-0.159-0.187-0.413-0.486-0.761-0.897-0.341-0.417-0.59-0.723-0.749-0.917v0l-4.723-5.676-0.751 6.317c-0.114 0.955-0.37 1.584-0.769 1.887-0.4 0.309-0.988 0.417-1.764 0.325v0c-0.856-0.102-1.466-0.373-1.831-0.813-0.359-0.433-0.484-1.107-0.375-2.022v0l1.671-14.058c0.131-1.101 0.512-1.9 1.142-2.397 0.631-0.497 1.47-0.683 2.519-0.559v0c0.716 0.085 1.28 0.266 1.69 0.544 0.412 0.271 0.881 0.734 1.409 1.389v0l6.501 8.208 0.755-6.347c0.099-0.829 0.378-1.428 0.839-1.797 0.468-0.368 1.063-0.509 1.786-0.424v0c0.829 0.099 1.407 0.362 1.732 0.791 0.325 0.435 0.435 1.091 0.331 1.967z" fill="#8b3c7f" data-fill-palette-color="accent"></path><path d="M179.916 16.011l-5.693 13.627c-0.332 0.795-0.831 1.321-1.496 1.579-0.662 0.267-1.442 0.212-2.342-0.164v0c-0.234-0.098-0.457-0.223-0.668-0.377-0.211-0.153-0.416-0.355-0.616-0.605-0.206-0.252-0.38-0.485-0.523-0.696-0.146-0.206-0.311-0.503-0.496-0.891-0.194-0.385-0.345-0.691-0.453-0.917-0.102-0.224-0.264-0.581-0.486-1.072-0.213-0.494-0.37-0.857-0.469-1.086v0l-2.988-6.754-2.453 5.871c-0.371 0.887-0.79 1.422-1.256 1.603-0.469 0.188-1.064 0.131-1.786-0.171v0c-0.795-0.332-1.308-0.76-1.537-1.283-0.227-0.515-0.162-1.197 0.193-2.047v0l5.457-13.063c0.427-1.023 1.013-1.687 1.755-1.992 0.743-0.305 1.601-0.254 2.575 0.152v0c0.666 0.278 1.158 0.607 1.477 0.987 0.322 0.373 0.647 0.947 0.975 1.721v0l4.004 9.675 2.464-5.898c0.322-0.77 0.755-1.27 1.3-1.498 0.55-0.226 1.162-0.199 1.833 0.082v0c0.77 0.322 1.253 0.734 1.449 1.235 0.193 0.508 0.12 1.169-0.22 1.982z" fill="#8b3c7f" data-fill-palette-color="accent"></path><path d="M194.632 32.821l3.977 3.096c0.817 0.636 1.289 1.215 1.416 1.736 0.127 0.522-0.056 1.099-0.548 1.732v0c-0.406 0.522-0.893 0.74-1.461 0.653-0.566-0.077-1.266-0.44-2.099-1.087v0l-3.747-2.917-1.908 2.45 5.002 3.932c0.859 0.669 1.38 1.277 1.562 1.826 0.178 0.554 0.017 1.152-0.483 1.795v0c-0.579 0.743-1.202 1.087-1.87 1.033-0.667-0.045-1.449-0.417-2.345-1.115v0l-7.495-5.834c-0.907-0.706-1.385-1.467-1.434-2.284-0.044-0.813 0.414-1.836 1.374-3.07v0l7.6-9.764c1.44-1.85 3.038-2.092 4.793-0.726v0l7.495 5.834c0.896 0.697 1.454 1.356 1.674 1.976 0.229 0.619 0.061 1.292-0.505 2.019v0c-0.525 0.675-1.084 1.001-1.677 0.98-0.589-0.027-1.313-0.374-2.172-1.043v0l-5.044-3.926z" fill="#8b3c7f" data-fill-palette-color="accent"></path><path d="M219.565 55.278v0c0.329-0.251 0.504-0.6 0.526-1.045 0.023-0.454-0.108-0.867-0.391-1.239v0c-0.567-0.743-1.458-1.034-2.671-0.873-1.218 0.165-2.361 0.656-3.428 1.471v0c-0.828 0.632-1.452 1.356-1.871 2.172-0.423 0.811-0.602 1.661-0.535 2.551 0.057 0.889 0.382 1.721 0.973 2.497v0c0.438 0.573 0.973 1.038 1.607 1.395 0.624 0.355 1.2 0.592 1.728 0.71 0.518 0.117 1.022 0.266 1.513 0.446 0.496 0.176 0.845 0.397 1.047 0.663v0c0.259 0.34 0.346 0.74 0.261 1.2-0.08 0.456-0.266 0.796-0.558 1.018v0c-0.329 0.251-0.786 0.445-1.372 0.581-0.585 0.136-1.282 0.181-2.091 0.135-0.809-0.046-1.633-0.19-2.472-0.432-0.834-0.245-1.705-0.681-2.613-1.308-0.903-0.621-1.705-1.391-2.406-2.31v0c-0.924-1.21-1.601-2.471-2.031-3.782-0.42-1.31-0.585-2.604-0.494-3.883 0.1-1.278 0.496-2.526 1.188-3.744 0.692-1.218 1.675-2.313 2.95-3.286v0c2.516-1.921 5.08-2.685 7.691-2.292 2.611 0.393 4.847 1.808 6.708 4.245v0c0.949 1.242 1.616 2.552 2.003 3.928 0.387 1.377 0.444 2.661 0.17 3.854-0.269 1.189-0.847 2.121-1.734 2.799v0c-1.025 0.782-2.215 1.149-3.571 1.1-1.347-0.047-2.436-0.615-3.267-1.703v0c-0.474-0.621-0.732-1.311-0.773-2.069-0.032-0.757 0.271-1.379 0.907-1.866v0c0.292-0.223 0.813-0.394 1.563-0.512 0.744-0.115 1.226-0.255 1.443-0.421z" fill="#8b3c7f" data-fill-palette-color="accent"></path><path d="M234.919 83.218l-9.798 4.071c-1.03 0.428-1.9 0.641-2.61 0.639-0.707 0.004-1.27-0.167-1.688-0.513-0.419-0.347-0.778-0.881-1.079-1.603v0c-0.441-1.061-0.477-1.95-0.109-2.667 0.368-0.717 1.27-1.381 2.708-1.993v0l9.97-4.208-0.958-2.303c-0.472-1.135-0.646-2.06-0.524-2.777 0.126-0.725 0.648-1.278 1.567-1.66v0c0.561-0.233 1.053-0.304 1.475-0.211 0.416 0.095 0.785 0.339 1.107 0.733 0.323 0.394 0.642 0.97 0.957 1.729v0l4.813 11.584c0.42 1.012 0.545 1.817 0.375 2.416-0.177 0.601-0.706 1.085-1.589 1.451v0c-0.598 0.249-1.118 0.313-1.558 0.192-0.443-0.127-0.819-0.379-1.129-0.757-0.303-0.381-0.596-0.913-0.88-1.598v0z" fill="#8b3c7f" data-fill-palette-color="accent"></path><path d="M21.115 161.094l1.648 4.794c0.339 0.985 0.42 1.734 0.243 2.248-0.179 0.507-0.651 0.891-1.415 1.154v0c-0.632 0.217-1.165 0.136-1.599-0.245-0.428-0.383-0.815-1.076-1.16-2.081v0l-1.554-4.519-2.956 1.016 2.053 6.064c0.356 1.036 0.459 1.838 0.308 2.406-0.147 0.559-0.612 0.973-1.395 1.242v0c-0.891 0.306-1.604 0.255-2.14-0.154-0.536-0.409-0.99-1.154-1.362-2.234v0l-3.104-9.029c-0.378-1.099-0.361-2.005 0.05-2.719 0.405-0.711 1.353-1.323 2.844-1.836v0l11.768-4.046c2.23-0.767 3.709-0.089 4.439 2.034v0l3.105 9.029c0.371 1.08 0.481 1.943 0.328 2.589-0.152 0.646-0.664 1.118-1.536 1.418v0c-0.821 0.282-1.471 0.251-1.95-0.093-0.487-0.348-0.909-1.04-1.264-2.076v0l-2.092-6.083z" fill="#8b3c7f" data-fill-palette-color="accent"></path><path d="M36.507 182.722l-10.034 6.696c0.286 0.428 0.578 0.77 0.879 1.028 0.306 0.254 0.672 0.447 1.098 0.58 0.428 0.124 0.9 0.146 1.417 0.066 0.508-0.082 1.105-0.276 1.792-0.581 0.682-0.302 1.439-0.732 2.273-1.288v0c0.933-0.623 1.669-1.23 2.205-1.821 0.533-0.597 0.867-1.161 1.002-1.693 0.126-0.534 0.134-1.033 0.025-1.498-0.106-0.459-0.325-0.956-0.657-1.489zM38.002 177.58l2.403 3.6c1.702 2.55 2.334 5.091 1.896 7.625-0.441 2.527-1.954 4.653-4.537 6.376v0c-0.833 0.556-1.694 1.018-2.581 1.386-0.887 0.367-1.824 0.619-2.809 0.754-0.985 0.136-1.933 0.118-2.843-0.054-0.904-0.176-1.804-0.567-2.699-1.174-0.89-0.611-1.685-1.441-2.385-2.491v0l-3.22-4.826c-0.667-1-0.893-1.885-0.677-2.656 0.216-0.771 0.988-1.599 2.316-2.485v0l10.351-6.908c1.945-1.298 3.54-1.013 4.785 0.853z" fill="#8b3c7f" data-fill-palette-color="accent"></path><path d="M63.028 209.868v0l-5.779 6.62c-1.889 2.164-3.767 3.259-5.635 3.286-1.863 0.032-4.032-1.033-6.508-3.194v0c-2.355-2.056-3.644-4.068-3.868-6.036-0.219-1.973 0.556-3.974 2.327-6.002v0l5.778-6.619c0.685-0.785 1.477-1.224 2.375-1.319 0.898-0.085 1.702 0.183 2.412 0.802v0c0.876 0.764 1.397 1.508 1.564 2.23 0.172 0.717-0.177 1.574-1.047 2.571v0l-6.318 7.238c-0.398 0.486-0.652 0.929-0.762 1.33-0.105 0.405-0.085 0.768 0.059 1.089 0.14 0.317 0.393 0.636 0.761 0.957 0.372 0.325 0.714 0.548 1.025 0.669 0.316 0.116 0.612 0.127 0.89 0.032 0.282-0.1 0.524-0.23 0.726-0.39 0.207-0.156 0.447-0.39 0.72-0.702v0l6.338-7.261c0.439-0.503 0.871-0.871 1.296-1.104 0.424-0.232 0.835-0.317 1.232-0.254 0.407 0.062 0.77 0.184 1.09 0.367 0.329 0.181 0.685 0.439 1.068 0.772v0c0.86 0.751 1.324 1.52 1.392 2.306 0.068 0.795-0.311 1.666-1.136 2.612z" fill="#8b3c7f" data-fill-palette-color="accent"></path><path d="M81.193 221.611v0c0.177-0.374 0.174-0.767-0.009-1.178-0.188-0.414-0.497-0.723-0.925-0.926v0c-0.851-0.402-1.782-0.247-2.791 0.465-1.006 0.706-1.799 1.673-2.379 2.899v0c-0.445 0.942-0.668 1.875-0.668 2.798-0.007 0.92 0.223 1.764 0.687 2.53 0.468 0.761 1.146 1.351 2.034 1.771v0c0.658 0.311 1.349 0.483 2.073 0.514 0.727 0.026 1.351-0.03 1.874-0.167 0.52-0.131 1.041-0.232 1.562-0.303 0.518-0.065 0.929-0.026 1.231 0.116v0c0.393 0.186 0.658 0.499 0.796 0.941 0.135 0.448 0.123 0.841-0.037 1.18v0c-0.174 0.368-0.488 0.752-0.943 1.15-0.458 0.39-1.061 0.751-1.809 1.084-0.743 0.336-1.545 0.588-2.408 0.757-0.863 0.168-1.844 0.181-2.943 0.038-1.097-0.134-2.17-0.45-3.221-0.946v0c-1.383-0.654-2.566-1.472-3.55-2.454-0.987-0.976-1.732-2.056-2.237-3.24-0.504-1.184-0.727-2.479-0.668-3.884 0.053-1.408 0.424-2.843 1.115-4.305v0c1.359-2.874 3.297-4.74 5.815-5.596 2.512-0.859 5.163-0.629 7.952 0.689v0c1.425 0.674 2.627 1.537 3.607 2.592 0.982 1.048 1.628 2.166 1.939 3.354 0.301 1.191 0.213 2.291-0.264 3.3v0c-0.557 1.178-1.449 2.056-2.675 2.636-1.236 0.583-2.476 0.581-3.72-0.007v0c-0.707-0.334-1.254-0.833-1.642-1.497-0.382-0.661-0.4-1.357-0.055-2.087v0c0.157-0.332 0.546-0.725 1.166-1.178 0.612-0.45 0.976-0.798 1.093-1.046z" fill="#8b3c7f" data-fill-palette-color="accent"></path><path d="M105.533 239.233v0c0.66 0.106 1.273-0.093 1.842-0.597 0.569-0.511 1.024-1.175 1.364-1.994 0.342-0.825 0.591-1.722 0.747-2.691v0c0.159-0.989 0.203-1.943 0.134-2.86-0.069-0.918-0.295-1.725-0.677-2.422-0.375-0.696-0.883-1.095-1.523-1.198v0c-0.62-0.099-1.214 0.123-1.781 0.668-0.561 0.546-1.032 1.248-1.414 2.107-0.374 0.853-0.638 1.765-0.794 2.734v0c-0.155 0.969-0.19 1.901-0.103 2.795 0.088 0.887 0.322 1.662 0.703 2.324 0.382 0.657 0.883 1.035 1.502 1.134zM110.191 243.156c-1.654 0.526-3.437 0.636-5.35 0.33-1.913-0.307-3.569-0.968-4.968-1.985-1.401-1.009-2.437-2.353-3.108-4.029-0.664-1.683-0.829-3.563-0.496-5.64v0c0.505-3.146 1.852-5.494 4.042-7.044 2.19-1.55 4.789-2.083 7.796-1.601 3.007 0.482 5.315 1.803 6.924 3.962 1.602 2.158 2.151 4.81 1.647 7.956v0c-0.333 2.077-1.085 3.811-2.255 5.199-1.162 1.383-2.573 2.334-4.232 2.852z" fill="#8b3c7f" data-fill-palette-color="accent"></path><path d="M145.499 224.934l1.751 14.755c0.102 0.862-0.072 1.572-0.524 2.13-0.445 0.557-1.155 0.894-2.131 1.01v0c-0.259 0.031-0.518 0.031-0.776 0.001-0.259-0.03-0.54-0.104-0.844-0.223-0.297-0.126-0.564-0.243-0.798-0.349-0.229-0.114-0.523-0.294-0.882-0.541-0.351-0.241-0.63-0.433-0.835-0.577-0.205-0.144-0.526-0.378-0.961-0.703-0.435-0.325-0.75-0.567-0.944-0.726v0l-5.964-4.427 0.755 6.357c0.113 0.955 0.008 1.63-0.315 2.025-0.316 0.394-0.866 0.638-1.648 0.731v0c-0.856 0.102-1.512-0.019-1.97-0.362-0.458-0.343-0.741-0.971-0.85-1.887v0l-1.679-14.148c-0.131-1.108 0.054-1.981 0.557-2.618 0.497-0.631 1.273-1.009 2.327-1.134v0c0.723-0.086 1.317-0.042 1.782 0.131 0.465 0.174 1.033 0.516 1.706 1.029v0l8.288 6.503-0.758-6.388c-0.1-0.842 0.034-1.497 0.403-1.965 0.375-0.468 0.924-0.745 1.646-0.831v0c0.836-0.099 1.463 0.025 1.881 0.372 0.418 0.347 0.679 0.959 0.783 1.835z" fill="#8b3c7f" data-fill-palette-color="accent"></path><path d="M171.77 214.774l5.725 13.712c0.335 0.801 0.361 1.532 0.079 2.192-0.275 0.658-0.866 1.176-1.772 1.555v0c-0.24 0.1-0.489 0.172-0.747 0.214-0.257 0.042-0.548 0.048-0.872 0.016-0.321-0.04-0.608-0.079-0.864-0.117-0.251-0.047-0.583-0.14-0.996-0.279-0.404-0.135-0.724-0.244-0.961-0.326-0.237-0.082-0.609-0.22-1.117-0.413-0.508-0.193-0.877-0.34-1.106-0.439v0l-6.948-2.626 2.466 5.908c0.371 0.888 0.455 1.565 0.252 2.034-0.196 0.466-0.658 0.85-1.386 1.154v0c-0.795 0.332-1.46 0.396-1.993 0.191-0.534-0.204-0.979-0.731-1.334-1.582v0l-5.489-13.147c-0.43-1.029-0.49-1.92-0.181-2.671 0.305-0.743 0.948-1.319 1.928-1.728v0c0.672-0.28 1.255-0.401 1.749-0.361 0.494 0.04 1.135 0.214 1.922 0.522v0l9.752 3.984-2.478-5.935c-0.327-0.783-0.377-1.449-0.151-2 0.232-0.553 0.684-0.97 1.357-1.25v0c0.777-0.324 1.413-0.377 1.91-0.157 0.497 0.22 0.915 0.736 1.255 1.549z" fill="#8b3c7f" data-fill-palette-color="accent"></path><path d="M188.528 209.789l4.002-3.112c0.823-0.64 1.505-0.959 2.047-0.958 0.537 0.005 1.054 0.327 1.55 0.965v0c0.41 0.527 0.506 1.058 0.287 1.592-0.223 0.529-0.754 1.12-1.593 1.771v0l-3.772 2.934 1.919 2.468 5.072-3.907c0.865-0.673 1.59-1.029 2.176-1.07 0.576-0.042 1.119 0.264 1.627 0.917v0c0.578 0.743 0.761 1.435 0.548 2.075-0.213 0.64-0.771 1.31-1.672 2.011v0l-7.537 5.862c-0.917 0.714-1.78 0.991-2.589 0.833-0.804-0.153-1.69-0.852-2.658-2.095v0l-7.64-9.823c-1.448-1.861-1.286-3.481 0.486-4.858v0l7.537-5.862c0.902-0.701 1.682-1.084 2.343-1.15 0.66-0.065 1.273 0.266 1.839 0.994v0c0.533 0.685 0.714 1.31 0.544 1.874-0.172 0.574-0.69 1.197-1.555 1.869v0l-5.077 3.949z" fill="#8b3c7f" data-fill-palette-color="accent"></path><path d="M207.431 185.896v0c-0.329-0.252-0.714-0.331-1.154-0.239-0.444 0.097-0.811 0.335-1.098 0.711v0c-0.572 0.748-0.615 1.69-0.131 2.827 0.48 1.132 1.258 2.11 2.336 2.933v0c0.828 0.633 1.693 1.046 2.595 1.24 0.899 0.199 1.771 0.152 2.619-0.142 0.842-0.298 1.561-0.837 2.157-1.617v0c0.442-0.578 0.755-1.218 0.937-1.919 0.178-0.705 0.254-1.328 0.23-1.868-0.019-0.536-0.009-1.066 0.031-1.591 0.045-0.521 0.169-0.914 0.372-1.178v0c0.264-0.345 0.626-0.539 1.087-0.581 0.467-0.038 0.848 0.056 1.146 0.283v0c0.324 0.247 0.633 0.635 0.927 1.162 0.285 0.529 0.512 1.194 0.681 1.997 0.173 0.796 0.251 1.634 0.235 2.513-0.016 0.879-0.209 1.841-0.58 2.886-0.361 1.044-0.894 2.028-1.6 2.951v0c-0.929 1.215-1.977 2.201-3.144 2.957-1.161 0.76-2.374 1.263-3.637 1.507-1.263 0.245-2.576 0.191-3.938-0.16-1.366-0.347-2.691-1.011-3.975-1.993v0c-2.526-1.931-3.943-4.217-4.253-6.859-0.314-2.636 0.467-5.18 2.341-7.631v0c0.957-1.252 2.054-2.247 3.29-2.984 1.231-0.741 2.459-1.138 3.686-1.192 1.228-0.045 2.285 0.272 3.171 0.949v0c1.035 0.791 1.707 1.847 2.017 3.169 0.311 1.331 0.049 2.543-0.787 3.636v0c-0.475 0.621-1.077 1.051-1.808 1.292-0.726 0.235-1.41 0.107-2.052-0.384v0c-0.292-0.223-0.594-0.685-0.907-1.387-0.312-0.692-0.576-1.122-0.794-1.288z" fill="#8b3c7f" data-fill-palette-color="accent"></path><path d="M220.019 161.031l9.86 4.106c1.03 0.429 1.797 0.897 2.302 1.404 0.499 0.504 0.776 1.029 0.832 1.573 0.047 0.548-0.08 1.182-0.38 1.903v0c-0.447 1.073-1.057 1.73-1.831 1.973-0.768 0.245-1.883 0.073-3.346-0.514v0l-10.067-4.128-0.963 2.312c-0.475 1.141-1.014 1.922-1.617 2.344-0.603 0.422-1.366 0.44-2.291 0.055v0c-0.561-0.234-0.958-0.533-1.19-0.897-0.232-0.364-0.322-0.8-0.27-1.306 0.054-0.513 0.241-1.151 0.56-1.916v0l4.849-11.645c0.424-1.017 0.912-1.678 1.467-1.983 0.551-0.299 1.271-0.263 2.158 0.107v0c0.598 0.249 1.01 0.572 1.235 0.97 0.229 0.406 0.314 0.854 0.255 1.343-0.05 0.486-0.219 1.074-0.507 1.765v0z" fill="#8b3c7f" data-fill-palette-color="accent"></path><path d="M2.095 125.192c0-4.274 3.465-7.739 7.739-7.739 4.274 0 7.739 3.465 7.739 7.739 0 4.274-3.465 7.739-7.739 7.739-4.274 0-7.739-3.465-7.739-7.739z" fill="#8b3c7f" data-fill-palette-color="accent"></path><path d="M226.859 125.192c0-4.274 3.465-7.739 7.738-7.739 4.274 0 7.739 3.465 7.739 7.739 0 4.274-3.465 7.739-7.739 7.739-4.274 0-7.739-3.465-7.738-7.739z" fill="#8b3c7f" data-fill-palette-color="accent"></path></g></svg></g></svg></g></svg></g><defs></defs></svg><rect width="395.52" height="145.9392927262704" fill="none" stroke="none" visibility="hidden"></rect></g></svg></g></svg>